<?xml version="1.0" encoding="UTF-8"?>
<svg version="1.1" xmlns="http://www.w3.org/2000/svg" width="2000" height="2000">
<path d="M0 0 C660 0 1320 0 2000 0 C2000 660 2000 1320 2000 2000 C1340 2000 680 2000 0 2000 C0 1340 0 680 0 0 Z " fill="#FEFEFE" transform="translate(0,0)"/>
<path d="M0 0 C1.71132111 0.00033989 1.71132111 0.00033989 3.45721436 0.00068665 C4.68337463 0.0161705 5.90953491 0.03165436 7.17285156 0.04760742 C9.06212372 0.05397469 9.06212372 0.05397469 10.98956299 0.06047058 C14.33036194 0.07441496 17.6705424 0.10134692 21.01116943 0.13458252 C24.42308214 0.16532778 27.83505886 0.17898539 31.24707031 0.1940918 C37.93604305 0.22717803 44.62472411 0.27739093 51.31347656 0.34057617 C51.31347656 1.99057617 51.31347656 3.64057617 51.31347656 5.34057617 C50.74951172 5.38545166 50.18554688 5.43032715 49.60449219 5.4765625 C47.00635134 5.6901484 44.4100731 5.92149769 41.81347656 6.15307617 C40.92660156 6.22333008 40.03972656 6.29358398 39.12597656 6.3659668 C30.90472062 7.12159694 23.90776573 9.09511888 17.31347656 14.34057617 C11.65998251 21.82763586 12.10118618 28.20736261 12.10644531 37.23901367 C12.10594209 38.33668123 12.10594209 38.33668123 12.1054287 39.4565239 C12.13000656 61.78327556 13.36714495 84.07856425 14.45197296 106.37316895 C14.9247434 116.13379409 15.38109982 125.89521319 15.84025574 135.65648651 C15.95508877 138.09423193 16.07027151 140.5319609 16.18580627 142.96967316 C16.92939482 158.6613311 17.61552003 174.35343021 18.20800781 190.05151367 C18.27317686 191.75306588 18.33844697 193.45461421 18.40382385 195.15615845 C18.66925887 202.09228458 18.92993895 209.02837092 19.16316891 215.965662 C19.23504103 218.0486398 19.31240121 220.13132924 19.39213562 222.21401978 C19.48587137 224.67083834 19.57086169 227.12801908 19.64387512 229.58554077 C19.9186512 243.79277105 19.9186512 243.79277105 25.72817993 256.13525391 C32.08644319 261.55901045 38.19787363 261.83541821 46.25097656 262.02807617 C47.22099609 262.06223633 48.19101563 262.09639648 49.19042969 262.1315918 C51.56466293 262.21346191 53.93855533 262.28280696 56.31347656 262.34057617 C56.69566423 263.99672275 57.02742758 265.66514642 57.31347656 267.34057617 C55.39200882 269.26204391 52.52629341 268.4607416 49.96984863 268.46499634 C49.05707153 268.46140106 48.14429443 268.45780579 47.20385742 268.45410156 C46.24786148 268.45424759 45.29186554 268.45439362 44.30690002 268.45454407 C41.13068411 268.45384452 37.95452604 268.4460502 34.77832031 268.43823242 C32.58256563 268.43636839 30.38681054 268.43494442 28.1910553 268.4339447 C22.39927023 268.43011836 16.60751006 268.42028708 10.81573486 268.40924072 C4.91068865 268.3990291 -0.99436157 268.39444762 -6.89941406 268.3894043 C-18.49512815 268.37866492 -30.09082373 268.3615871 -41.68652344 268.34057617 C-41.68652344 266.36057617 -41.68652344 264.38057617 -41.68652344 262.34057617 C-40.62433594 262.2915918 -39.56214844 262.24260742 -38.46777344 262.19213867 C-23.75218684 261.8708035 -23.75218684 261.8708035 -11.68652344 254.34057617 C-8.92415804 248.54336715 -9.3881842 242.43129234 -9.43652344 236.15307617 C-9.43929291 235.50556396 -9.44206238 234.85805176 -9.44491577 234.19091797 C-9.6367613 194.2823265 -11.78919717 154.34219504 -13.53835964 114.47560883 C-13.69411413 110.92542855 -13.84875899 107.37520055 -14.00292969 103.82495117 C-14.03289347 103.13668747 -14.06285725 102.44842377 -14.09372902 101.73930359 C-14.59741959 90.10783896 -14.97954837 78.47473862 -15.3316803 66.83782959 C-15.60841515 57.99001044 -16.01412671 49.16757153 -16.68652344 40.34057617 C-16.91328766 40.86625687 -17.14005188 41.39193756 -17.37368774 41.93354797 C-41.53320316 97.93969734 -41.53320316 97.93969734 -42.91117859 101.13409424 C-43.81792772 103.23610404 -44.72467617 105.33811413 -45.63142395 107.44012451 C-47.895787 112.68933788 -50.16016208 117.93854606 -52.42456055 123.18774414 C-56.57936452 132.81920308 -60.73408116 142.45069964 -64.8883667 152.0823822 C-66.75408982 156.40803737 -68.61986412 160.73367046 -70.48565674 165.05929565 C-71.40831853 167.19838888 -72.33096673 169.33748796 -73.25360107 171.47659302 C-78.12292745 182.76581763 -82.99389283 194.05432911 -87.87011719 205.34057617 C-88.28624771 206.30380798 -88.70237823 207.26703979 -89.13111877 208.25946045 C-92.40696726 215.84210169 -92.40696726 215.84210169 -93.99978638 219.52722168 C-97.84871719 228.43223195 -101.69272312 237.33912116 -105.49902344 246.26245117 C-105.78776337 246.93885147 -106.0765033 247.61525177 -106.37399292 248.31214905 C-107.68609195 251.3865576 -108.99550662 254.46202667 -110.30029297 257.53955078 C-110.73970215 258.57088135 -111.17911133 259.60221191 -111.63183594 260.66479492 C-112.00840332 261.55255615 -112.3849707 262.44031738 -112.77294922 263.35498047 C-113.68652344 265.34057617 -113.68652344 265.34057617 -114.68652344 266.34057617 C-116.93652344 266.90307617 -116.93652344 266.90307617 -119.68652344 266.34057617 C-123.57183026 261.52099594 -126.16212356 255.58439449 -128.76855469 250.00463867 C-129.1395932 249.22080811 -129.51063171 248.43697754 -129.89291382 247.62939453 C-131.09969853 245.07699895 -132.29941761 242.52135255 -133.49902344 239.96557617 C-134.34731291 238.16768691 -135.19603318 236.37000086 -136.04516602 234.57250977 C-138.19303635 230.02270764 -140.33509096 225.47019587 -142.47521973 220.91674805 C-144.29020436 217.05668196 -146.10958462 213.1986916 -147.92871094 209.34057617 C-150.87812335 203.08285404 -153.82224025 196.82265753 -156.76368713 190.56118774 C-159.73370712 184.23906341 -162.7076154 177.91877321 -165.68237305 171.59887695 C-167.01053121 168.77718183 -168.33814787 165.95523298 -169.6652832 163.13305664 C-172.75170764 156.5705339 -175.84133639 150.00957923 -178.94244385 143.45397949 C-180.38656238 140.40066353 -181.82884256 137.3464808 -183.27099609 134.29223633 C-183.95042332 132.8546308 -184.63072309 131.41743723 -185.31201172 129.98071289 C-185.63282715 129.30411621 -185.95364258 128.62751953 -186.28417969 127.93041992 C-186.59868576 127.26771088 -186.91319183 126.60500183 -187.23722839 125.92221069 C-188.14829386 123.98146122 -189.03320139 122.03012882 -189.91821289 120.07739258 C-191.07484629 117.55195043 -192.34707907 115.16394278 -193.75756836 112.77172852 C-196.52760462 107.65191264 -198.27812481 104.37932552 -196.60742188 98.62182617 C-194.71793688 94.63596228 -192.26236971 91.07670042 -189.74902344 87.46557617 C-188.9234538 86.18337397 -188.10244187 84.89822514 -187.28613281 83.61010742 C-183.15326859 77.24202595 -183.15326859 77.24202595 -180.68652344 74.34057617 C-179.69652344 74.34057617 -178.70652344 74.34057617 -177.68652344 74.34057617 C-177.30133545 75.16106445 -176.91614746 75.98155273 -176.51928711 76.8269043 C-168.4862332 93.93204328 -160.42498242 111.0234146 -152.31152344 128.09057617 C-151.91543884 128.92381409 -151.51935425 129.757052 -151.11126709 130.61553955 C-149.50078461 134.00344328 -147.89028128 137.39133709 -146.27972412 140.77920532 C-140.17262744 153.62726499 -134.07977741 166.48206653 -127.99819946 179.34222412 C-125.72618928 184.1459825 -123.44960695 188.94754595 -121.17027283 193.74783325 C-119.65800938 196.93461075 -118.14896787 200.12290645 -116.64071655 203.31158447 C-115.92626894 204.82032294 -115.21048751 206.32843057 -114.49331665 207.83587646 C-113.50989272 209.90349008 -112.53122587 211.97328891 -111.55371094 214.04370117 C-110.99796387 215.21578125 -110.4422168 216.38786133 -109.86962891 217.59545898 C-108.68652344 220.34057617 -108.68652344 220.34057617 -108.68652344 222.34057617 C-108.02652344 222.34057617 -107.36652344 222.34057617 -106.68652344 222.34057617 C-106.32300781 221.14819336 -105.95949219 219.95581055 -105.58496094 218.72729492 C-103.56332886 212.67301402 -100.88795354 206.92387928 -98.22253418 201.13360596 C-96.63411749 197.68040127 -95.06273496 194.21946267 -93.49121094 190.75854492 C-93.00835632 189.69585388 -93.00835632 189.69585388 -92.51574707 188.61169434 C-89.41107045 181.76306228 -86.41155358 174.87157566 -83.43652344 167.96557617 C-82.36262356 165.47455251 -81.28856306 162.98360009 -80.21386719 160.49291992 C-79.93656265 159.85022156 -79.65925812 159.20752319 -79.37355042 158.54534912 C-75.61969069 149.8564746 -71.80730195 141.19319842 -67.99902344 132.52807617 C-67.61927368 131.66386047 -67.23952393 130.79964478 -66.8482666 129.90924072 C-64.90495844 125.48691767 -62.96116327 121.06480895 -61.01708984 116.64282227 C-57.60979141 108.89191607 -54.20703921 101.13901442 -50.80401611 93.38623047 C-49.6887026 90.84554032 -48.57315011 88.30495523 -47.45751953 85.7644043 C-43.9965894 77.88279269 -40.53688379 70.00065066 -37.08163452 62.11654663 C-35.48077619 58.46395722 -33.87920568 54.81168027 -32.27758789 51.15942383 C-31.52723573 49.44782687 -30.7772177 47.73608337 -30.02758789 46.02416992 C-27.94888504 41.27720313 -25.8638848 36.53310107 -23.76922607 31.79315186 C-23.01442557 30.08335149 -22.26151962 28.37271405 -21.5100708 26.66143799 C-20.31543558 23.94387038 -19.11312262 21.22981233 -17.90917969 18.51635742 C-17.36444252 17.27199165 -17.36444252 17.27199165 -16.80870056 16.00248718 C-9.64341843 -0.06400499 -9.64341843 -0.06400499 0 0 Z " fill="#3F3D3C" transform="translate(1214.6865234375,742.659423828125)"/>
<path d="M0 0 C33.99 0 67.98 0 103 0 C102.67 1.65 102.34 3.3 102 5 C100.58460938 5.05607422 100.58460938 5.05607422 99.140625 5.11328125 C84.98864165 5.76817405 84.98864165 5.76817405 71.9375 10.8125 C65.85452971 17.68036968 65.85250347 25.08181826 65.88647461 33.74731445 C65.88632858 34.72340164 65.88618256 35.69948883 65.8860321 36.70515442 C65.88672758 39.9245528 65.8945029 43.143893 65.90234375 46.36328125 C65.90420923 48.59815947 65.90563252 50.8330381 65.90663147 53.06791687 C65.91044643 58.94513074 65.92026802 64.82231983 65.93133545 70.69952393 C65.94157151 76.69876775 65.9461338 82.69801558 65.95117188 88.69726562 C65.96189118 100.46485463 65.97895537 112.23242525 66 124 C66.84667236 123.15110703 67.69334473 122.30221405 68.56567383 121.42759705 C76.5661193 113.40683239 84.56924004 105.38874563 92.57495117 97.37323666 C96.69013942 93.25284184 100.8043972 89.131527 104.91650391 85.00805664 C108.88892986 81.02472251 112.86383192 77.04387449 116.84042358 73.06469917 C118.35305229 71.55023048 119.86480426 70.03488557 121.37564087 68.51862907 C123.50067865 66.3862755 125.62888359 64.25712988 127.7578125 62.12866211 C128.68247063 61.19861107 128.68247063 61.19861107 129.62580872 60.24977112 C133.38276119 56.50154882 137.26425841 52.95035545 141.28488159 49.48617363 C159.79036865 33.94856535 159.79036865 33.94856535 170.4375 13.3125 C170.19950176 10.89890228 170.19950176 10.89890228 168.375 9.3125 C163.14207246 6.42061899 158.02447097 5.649394 152.125 5.375 C151.43664062 5.33632813 150.74828125 5.29765625 150.0390625 5.2578125 C148.35976754 5.16451834 146.67992233 5.08121762 145 5 C145 3.35 145 1.7 145 0 C177.01 0 209.02 0 242 0 C241.67 1.65 241.34 3.3 241 5 C239.99324219 5.08636719 238.98648437 5.17273438 237.94921875 5.26171875 C199.38738415 8.94842515 175.26963118 28.4089484 148.86547852 55.1706543 C147.96498779 56.07984619 147.06449707 56.98903809 146.13671875 57.92578125 C145.33967529 58.73442627 144.54263184 59.54307129 143.72143555 60.3762207 C141.58439061 62.43657972 139.42389233 64.38582051 137.17895508 66.32324219 C132.93418747 70.00715885 128.95787478 73.91445223 125 77.90234375 C124.2788501 78.6249086 123.5577002 79.34747345 122.81469727 80.0919342 C120.54074585 82.37142604 118.27032046 84.6543924 116 86.9375 C114.44684765 88.49567506 112.89346433 90.05361993 111.33984375 91.61132812 C107.55722414 95.40489759 103.7774831 99.20131615 100 103 C100.947831 104.43765445 101.89778832 105.87390717 102.84863281 107.30957031 C103.37741028 108.1095343 103.90618774 108.90949829 104.45098877 109.73370361 C106.3843955 112.56239369 108.51474753 115.15470686 110.75 117.75 C114.25914696 121.87739038 117.65228823 126.06711361 120.9375 130.375 C124.40556365 134.92168387 127.89988724 139.44463795 131.4375 143.9375 C131.89503662 144.51870605 132.35257324 145.09991211 132.82397461 145.69873047 C133.75210036 146.87725631 134.68040476 148.05564149 135.60888672 149.23388672 C138.36289683 152.73029057 141.11161704 156.230859 143.859375 159.73217773 C146.23156297 162.75391359 148.60936135 165.77098473 150.99609375 168.78125 C151.48851562 169.40386719 151.9809375 170.02648437 152.48828125 170.66796875 C153.42262746 171.84912339 154.35869745 173.02891749 155.296875 174.20703125 C158.05757856 177.7016983 160.5779491 181.26858052 163 185 C159.51311709 183.69251553 156.41518908 182.15999241 153.2421875 180.21484375 C152.36949219 179.68439453 151.49679687 179.15394531 150.59765625 178.60742188 C149.69917969 178.05634766 148.80070313 177.50527344 147.875 176.9375 C146.08238186 175.83974451 144.28817848 174.74457234 142.4921875 173.65234375 C141.70183105 173.16757568 140.91147461 172.68280762 140.09716797 172.18334961 C137.92172223 170.86790828 137.92172223 170.86790828 135 170 C134.6596875 170.99 134.6596875 170.99 134.3125 172 C132.59428642 175.92734533 130.33225393 179.41260178 128 183 C123.76101315 178.92802764 120.02936149 174.54929156 116.3125 170 C115.69383057 169.245979 115.07516113 168.49195801 114.43774414 167.71508789 C110.03983416 162.33188185 105.78049466 156.86233265 101.57421875 151.328125 C98.03545675 146.71100366 94.33503401 142.22287353 90.64038086 137.73022461 C86.96456823 133.24560683 83.44464531 128.66443146 80 124 C74.19861315 126.66786891 68.93432292 130.15654276 66 136 C64.14393536 143.54735128 64.78871668 151.5989611 64.953125 159.3046875 C64.96672442 161.59333259 64.97615641 163.88200586 64.98162842 166.17068481 C65.00837481 172.18074031 65.09680696 178.18841189 65.19677734 184.19763184 C65.26747802 189.08262727 65.29372617 193.96738066 65.31761551 198.85279655 C65.34733565 204.71190652 65.39762011 210.57077133 65.453125 216.4296875 C65.46294655 217.53414089 65.4727681 218.63859428 65.48288727 219.77651596 C64.82094837 237.98915886 64.82094837 237.98915886 69.75 255.0625 C73.71657235 258.47815953 77.1237401 260.03149325 82.3125 260.375 C87.65668284 260.78399358 91.55547839 263.15256417 96 266 C96 266.33 96 266.66 96 267 C64.32 267 32.64 267 0 267 C0 265.35 0 263.7 0 262 C0.55349121 261.9906543 1.10698242 261.98130859 1.67724609 261.97167969 C18.32506691 262.15918523 18.32506691 262.15918523 32.5 254.625 C35.88005687 248.70990048 36.29029268 243.47556186 36.26069641 236.83512878 C36.26452196 235.9216366 36.26834751 235.00814441 36.27228898 234.06697065 C36.28259428 231.01097826 36.27863148 227.95517463 36.2746582 224.89916992 C36.27900608 222.70601732 36.28418948 220.51286623 36.29014587 218.31971741 C36.30354 212.36509575 36.30411399 206.41053755 36.30158257 200.45590377 C36.30051299 195.48330401 36.305396 190.5107171 36.310188 185.53812009 C36.32191942 173.1340929 36.32105732 160.73009397 36.31463119 148.32606576 C36.3094645 137.56572457 36.32071165 126.80547399 36.33972941 116.04515072 C36.35912571 104.9854766 36.36706941 93.92584739 36.36360615 82.8661564 C36.36179388 76.66142732 36.36442393 70.45678119 36.37832069 64.25206566 C36.39090385 58.41535988 36.38895014 52.57883521 36.37590981 46.74213219 C36.37354543 44.60281818 36.3762737 42.46349141 36.38453293 40.32419205 C36.39501385 37.39785954 36.38688865 34.4721332 36.3742218 31.54582214 C36.38528323 30.28392595 36.38528323 30.28392595 36.39656812 28.99653691 C36.33556616 22.27125282 35.46300797 15.52782397 30.625 10.5625 C26.36758145 8.02832229 22.63629 6.77139216 17.69921875 6.3671875 C16.72275391 6.28339844 15.74628906 6.19960938 14.74023438 6.11328125 C13.73283203 6.03464844 12.72542969 5.95601562 11.6875 5.875 C10.66076172 5.78863281 9.63402344 5.70226562 8.57617188 5.61328125 C6.05127134 5.40189423 3.52600242 5.19770649 1 5 C0.67 3.35 0.34 1.7 0 0 Z " fill="#3F3D3C" transform="translate(818,534)"/>
<path d="M0 0 C1.98 1.32 3.96 2.64 6 4 C4.7473218 7.39236201 3.32892465 10.21621196 1.234375 13.16015625 C0.68136719 13.94326172 0.12835937 14.72636719 -0.44140625 15.53320312 C-1.03824219 16.36787109 -1.63507813 17.20253906 -2.25 18.0625 C-3.52617514 19.86579096 -4.80221303 21.66917907 -6.078125 23.47265625 C-6.73103516 24.39191895 -7.38394531 25.31118164 -8.05664062 26.25830078 C-11.05741626 30.4918071 -14.02802094 34.74625497 -17 39 C-18.16390945 40.66286755 -19.32797252 42.32562759 -20.4921875 43.98828125 C-22.85248124 47.36003531 -25.2117491 50.7325041 -27.5703125 54.10546875 C-33.51694129 62.60810465 -39.47678902 71.10090706 -45.46582031 79.57373047 C-51.67394597 88.36140404 -57.83465946 97.18228559 -64 106 C-71.1340188 116.20312503 -78.27436914 126.40128359 -85.46142578 136.56713867 C-89.32373472 142.03352596 -93.16452068 147.51476211 -97 153 C-101.31906804 159.17683312 -105.64898265 165.34562915 -110 171.5 C-116.69916114 180.97727045 -123.34956634 190.48850191 -130 200 C-137.1340188 210.20312503 -144.27436914 220.40128359 -151.46142578 230.56713867 C-155.32373472 236.03352596 -159.16452068 241.51476211 -163 247 C-167.31906804 253.17683312 -171.64898265 259.34562915 -176 265.5 C-182.69916114 274.97727045 -189.34956634 284.48850191 -196 294 C-203.1340188 304.20312503 -210.27436914 314.40128359 -217.46142578 324.56713867 C-221.92367111 330.88262549 -226.3567202 337.21836552 -230.78686523 343.55639648 C-234.04158839 348.21042186 -237.30893202 352.85500585 -240.59277344 357.48852539 C-247.50903442 367.24826577 -254.27213562 377.10964631 -261 387 C-265.67692308 385.52307692 -265.67692308 385.52307692 -267.3125 382.875 C-267.539375 382.25625 -267.76625 381.6375 -268 381 C-267.29617188 380.00484375 -266.59234375 379.0096875 -265.8671875 377.984375 C-260.22582562 370.00277783 -254.60084176 362.01009027 -249 354 C-244.19751971 347.13180971 -239.37713399 340.27674835 -234.5390625 333.43359375 C-230.6766353 327.96693091 -226.83564745 322.48547834 -223 317 C-218.197513 310.13181445 -213.377134 303.27674835 -208.5390625 296.43359375 C-204.6766353 290.96693091 -200.83564745 285.48547834 -197 280 C-192.197513 273.13181445 -187.377134 266.27674835 -182.5390625 259.43359375 C-178.6766353 253.96693091 -174.83564745 248.48547834 -171 243 C-166.68093196 236.82316688 -162.35101735 230.65437085 -158 224.5 C-151.30083886 215.02272955 -144.65043366 205.51149809 -138 196 C-130.8659812 185.79687497 -123.72563086 175.59871641 -116.53857422 165.43286133 C-112.67626528 159.96647404 -108.83547932 154.48523789 -105 149 C-100.197513 142.13181445 -95.377134 135.27674835 -90.5390625 128.43359375 C-86.6766353 122.96693091 -82.83564745 117.48547834 -79 112 C-74.197513 105.13181445 -69.377134 98.27674835 -64.5390625 91.43359375 C-60.6766353 85.96693091 -56.83564745 80.48547834 -53 75 C-48.197513 68.13181445 -43.377134 61.27674835 -38.5390625 54.43359375 C-34.6766349 48.96693035 -30.83575081 43.48540655 -27 38 C-8.83645812 12.0331768 -8.83645812 12.0331768 0 0 Z " fill="#42403F" transform="translate(1135,594)"/>
<path d="M0 0 C0.33 0 0.66 0 1 0 C0.98889694 0.92913208 0.97779388 1.85826416 0.96635437 2.81555176 C0.86550521 11.64017312 0.78970981 20.46459653 0.74093914 29.28966522 C0.71502124 33.82503665 0.6799561 38.35992564 0.62280273 42.89501953 C0.56783808 47.28470998 0.53844621 51.67394115 0.52561378 56.06394958 C0.51648792 57.7254508 0.49867325 59.38693144 0.47134972 61.04823303 C0.33572274 69.649096 0.71231057 77.55936414 3.21801758 85.83789062 C3.41229434 86.48835106 3.6065711 87.13881149 3.80673504 87.80898285 C6.11823247 94.61337458 10.93468429 98.48211689 17 102 C23.43849623 104.49655976 30.15588074 104.60890747 37 105 C37 106.98 37 108.96 37 111 C9.94 111 -17.12 111 -45 111 C-45 106 -45 106 -44 105 C-42.02403942 104.72580939 -40.0439499 104.48120769 -38.0625 104.25 C-30.5497022 103.13546406 -24.2094156 101.04049899 -18.625 95.75 C-11.39769506 83.51917626 -10.85251634 71.31245786 -10.9375 57.3828125 C-10.94041046 56.23471603 -10.94332092 55.08661957 -10.94631958 53.9037323 C-10.96080715 49.10469314 -10.97652579 44.30749335 -11.07177734 39.50927734 C-11.35560117 23.81360662 -10.71778628 12.12961272 0 0 Z " fill="#42403F" transform="translate(984,900)"/>
</svg>
